<?xml version="1.0" encoding="UTF-8" standalone="no"?>
<svg
   xmlns:dc="http://purl.org/dc/elements/1.1/"
   xmlns:cc="http://creativecommons.org/ns#"
   xmlns:rdf="http://www.w3.org/1999/02/22-rdf-syntax-ns#"
   xmlns:svg="http://www.w3.org/2000/svg"
   xmlns="http://www.w3.org/2000/svg"
   id="svg18"
   class="si-glyph si-glyph-handcuff"
   version="1.1"
   viewBox="0 -1 528 72"
   height="72"
   width="528">
  <metadata
     id="metadata22">
    <rdf:RDF>
      <cc:Work
         rdf:about="">
        <dc:format>image/svg+xml</dc:format>
        <dc:type
           rdf:resource="http://purl.org/dc/dcmitype/StillImage" />
        <dc:title>65</dc:title>
      </cc:Work>
    </rdf:RDF>
  </metadata>
  <title
     id="title2">65</title>
  <defs
     id="defs4" />
  <g
     transform="matrix(4.8789551,0,0,4.8789551,251.14002,6.7483038)"
     style="fill:#e63946;fill-opacity:1;fill-rule:evenodd;stroke:none;stroke-width:1"
     id="g16">
    <g
       transform="translate(-9.7627119,-1.0508475)"
       style="fill:#e63946;fill-opacity:1"
       id="g14">
      <g
         style="fill:#e63946;fill-opacity:1"
         id="g10">
        <path
           style="fill:#e63946;fill-opacity:1"
           id="path6"
           class="si-glyph-fill"
           d="M 10.556,6.076 C 10.19,5.909 8.877,6.517 9.032,6.905 9.194,7.372 9.341,8.406 9.096,9.179 9.002,9.478 8.957,9.722 8.903,9.786 c -0.075,0.146 0.771,1.2 1.412,1.005 0.221,-0.336 0.271,-0.61 0.42,-1.081 0.392,-1.242 0.292,-3.361 -0.179,-3.634 z" />
        <path
           style="fill:#e63946;fill-opacity:1"
           id="path8"
           class="si-glyph-fill"
           d="M 6.852,0.066 C 6.442,-0.018 5.598,-0.038 5.368,0.206 5.345,0.231 5.318,0.255 5.308,0.285 L 3.864,2.775 C 3.35,2.926 2.87,3.163 2.425,3.46 1.446,4.112 0.668,5.085 0.284,6.301 -0.094,7.493 -0.034,8.72 0.367,9.809 c 0.227,0.617 0.564,1.188 0.997,1.684 0.613,0.705 1.414,1.261 2.364,1.568 1.001,0.324 2.024,0.328 2.97,0.074 C 6.063,12.688 5.719,12.219 5.264,11.496 4.934,11.49 4.602,11.443 4.273,11.337 3.854,11.201 3.483,10.986 3.16,10.724 2.68,10.338 2.319,9.836 2.093,9.271 1.794,8.526 1.727,7.679 1.988,6.852 2.256,6.011 2.809,5.353 3.5,4.921 4.011,4.6 4.596,4.412 5.209,4.387 c 0.021,-10e-4 0.032,0 0.051,0 C 5.52,4.379 5.619,4.396 5.811,4.458 5.915,4.303 6.276,3.791 6.721,3.594 L 7.219,1.107 C 7.354,0.807 7.634,0.615 7.768,0.454 L 6.981,0.098 C 6.944,0.086 6.898,0.076 6.852,0.066 Z" />
      </g>
      <path
         style="fill:#e63946;fill-opacity:1"
         id="path12"
         class="si-glyph-fill"
         d="M 13.524,4.241 12.629,1.766 C 12.627,1.386 11.567,1.082 11.175,1.084 L 9.611,1.089 C 9.254,1.09 8.236,1.352 8.068,1.689 8.053,1.719 8.035,1.749 8.035,1.781 L 7.412,4.261 C 6.957,4.561 6.56,4.932 6.217,5.348 5.462,6.262 5.006,7.417 5.011,8.68 c 0.005,1.238 0.447,2.374 1.181,3.275 0.416,0.512 0.928,0.944 1.506,1.277 0.82,0.475 1.779,0.751 2.807,0.748 C 13.526,13.969 15.97,11.582 15.96,8.644 15.951,6.809 14.986,5.191 13.524,4.241 Z M 10.969,1.984 h 1.062 V 3 h -1.062 z m -2,0 h 1.062 V 3 H 8.969 Z m 1.453,10.266 c -2.097,0 -3.797,-1.686 -3.797,-3.766 0,-2.08 1.7,-3.766 3.797,-3.766 2.096,0 3.797,1.686 3.797,3.766 0,2.08 -1.701,3.766 -3.797,3.766 z" />
    </g>
  </g>
  <path
     id="text831"
     transform="translate(0,-1)"
     d="M 101.74805 6.4433594 C 100.54795 6.4433594 99.591464 6.8136124 98.878906 7.5546875 C 98.203851 8.2957626 97.867187 9.2630779 97.867188 10.457031 C 97.867187 11.733327 98.203851 12.721971 98.878906 13.421875 C 99.553961 14.121779 100.51045 14.472656 101.74805 14.472656 C 102.94814 14.472656 103.88549 14.10045 104.56055 13.359375 C 105.2731 12.6183 105.63086 11.650986 105.63086 10.457031 C 105.63086 9.1807364 105.29224 8.1940449 104.61719 7.4941406 C 103.94213 6.7942364 102.98565 6.4433594 101.74805 6.4433594 z M 179.54883 13.359375 L 179.54883 21.634766 L 173.41602 21.634766 L 173.41602 27.810547 L 179.54883 27.810547 L 179.54883 54.058594 L 185.34375 54.058594 L 185.34375 27.810547 L 192.20508 27.810547 L 192.20508 21.634766 L 185.34375 21.634766 L 185.34375 13.359375 L 179.54883 13.359375 z M 126.10742 20.894531 C 123.93225 20.894531 121.9064 21.326819 120.03125 22.191406 C 118.1936 23.014823 116.60011 24.208946 115.25 25.773438 C 113.93739 27.296759 112.90631 29.107318 112.15625 31.207031 C 111.40619 33.306744 111.03125 35.632955 111.03125 38.185547 C 111.03125 41.396872 111.68739 44.238734 113 46.708984 C 114.35011 49.179235 116.18653 51.135193 118.51172 52.576172 C 120.87441 53.97598 123.57553 54.675781 126.61328 54.675781 C 128.00089 54.675781 129.40692 54.470302 130.83203 54.058594 C 132.29465 53.605715 133.66435 53.008653 134.93945 52.267578 C 136.25206 51.526503 137.35774 50.661928 138.25781 49.673828 L 135.33203 45.164062 C 133.86941 46.563871 132.50167 47.531185 131.22656 48.066406 C 129.98896 48.601627 128.6384 48.871094 127.17578 48.871094 C 125.11311 48.871094 123.29388 48.417477 121.71875 47.511719 C 120.14362 46.60596 118.92507 45.330427 118.0625 43.683594 C 117.41045 42.407566 117.0068 40.964778 116.84766 39.359375 L 139.43945 39.359375 L 139.49609 36.642578 C 139.5336 34.378182 139.21412 32.298155 138.53906 30.404297 C 137.90151 28.469267 136.96416 26.802152 135.72656 25.402344 C 134.52647 24.002535 133.10131 22.911152 131.45117 22.128906 C 129.80104 21.305489 128.02008 20.894531 126.10742 20.894531 z M 56.746094 20.957031 C 55.358481 20.957031 54.007922 21.327284 52.695312 22.068359 C 51.420209 22.809434 50.276254 23.817454 49.263672 25.09375 C 48.636557 25.91459 48.138568 26.80214 47.744141 27.742188 L 47.744141 21.634766 L 41.894531 21.634766 L 41.894531 54.058594 L 47.744141 54.058594 L 47.744141 36.148438 C 47.744141 34.954483 47.950748 33.8631 48.363281 32.875 C 48.775815 31.845729 49.319086 30.961778 49.994141 30.220703 C 50.706698 29.438457 51.513989 28.841396 52.414062 28.429688 C 53.351639 27.976807 54.325308 27.75 55.337891 27.75 C 55.862933 27.75 56.389021 27.83141 56.914062 27.996094 C 57.476608 28.119606 57.983557 28.28438 58.433594 28.490234 L 59.951172 21.574219 C 59.613644 21.409535 59.144971 21.266091 58.544922 21.142578 C 57.982376 21.019066 57.383645 20.957031 56.746094 20.957031 z M 76.603516 20.957031 C 73.715781 20.957031 71.127529 21.697537 68.839844 23.179688 C 66.589661 24.620667 64.8087 26.61733 63.496094 29.169922 C 62.183487 31.681343 61.527344 34.56391 61.527344 37.816406 C 61.527344 41.068903 62.183487 43.970844 63.496094 46.523438 C 64.8087 49.034858 66.589661 51.031522 68.839844 52.513672 C 71.127529 53.954651 73.715781 54.675781 76.603516 54.675781 C 79.453747 54.675781 82.003724 53.954651 84.253906 52.513672 C 86.541592 51.031522 88.34169 49.034856 89.654297 46.523438 C 90.966903 43.970844 91.623047 41.068903 91.623047 37.816406 C 91.623047 34.56391 90.966903 31.681343 89.654297 29.169922 C 88.34169 26.61733 86.541592 24.620666 84.253906 23.179688 C 82.003724 21.697537 79.453747 20.957031 76.603516 20.957031 z M 158.33984 20.957031 C 155.60212 20.957031 153.14588 21.697537 150.9707 23.179688 C 148.83303 24.661838 147.12667 26.67983 145.85156 29.232422 C 144.61396 31.785014 143.99609 34.646252 143.99609 37.816406 C 143.99609 40.986561 144.61396 43.847799 145.85156 46.400391 C 147.12667 48.952983 148.83303 50.969022 150.9707 52.451172 C 153.14588 53.933322 155.60212 54.675781 158.33984 54.675781 C 160.74004 54.675781 163.04709 54.07872 165.25977 52.884766 C 167.50995 51.690811 169.23545 50.167141 170.43555 48.314453 L 167.22852 43.992188 C 166.44095 45.062629 165.59734 45.967909 164.69727 46.708984 C 163.79719 47.450059 162.85984 48.006416 161.88477 48.376953 C 160.94719 48.747491 159.97157 48.931641 158.95898 48.931641 C 157.23384 48.931641 155.65949 48.437319 154.23438 47.449219 C 152.80926 46.461119 151.6653 45.14488 150.80273 43.498047 C 149.94016 41.810042 149.50781 39.916119 149.50781 37.816406 C 149.50781 35.716693 149.92103 33.82277 150.74609 32.134766 C 151.57116 30.446761 152.67684 29.12857 154.06445 28.181641 C 155.48957 27.19354 157.1022 26.699219 158.90234 26.699219 C 159.87742 26.699219 160.89132 26.926027 161.94141 27.378906 C 162.99149 27.831785 163.9843 28.450176 164.92188 29.232422 C 165.85945 30.014668 166.62847 30.879243 167.22852 31.826172 L 170.43555 27.501953 C 169.31046 25.484582 167.65955 23.90083 165.48438 22.748047 C 163.3467 21.554093 160.96506 20.957031 158.33984 20.957031 z M 21.810547 21.080078 C 20.197916 21.080078 18.623562 21.450331 17.085938 22.191406 C 15.585816 22.891311 14.309851 23.81792 13.259766 24.970703 C 12.854668 25.399537 12.530356 25.839894 12.248047 26.287109 L 12.248047 21.634766 L 6.3964844 21.634766 L 6.3964844 67.644531 L 12.248047 67.644531 L 12.248047 49.804688 C 12.440758 50.050237 12.63899 50.294948 12.867188 50.537109 C 13.992278 51.731064 15.360025 52.719707 16.972656 53.501953 C 18.585287 54.243028 20.255329 54.613281 21.980469 54.613281 C 24.568179 54.613281 26.892411 53.892151 28.955078 52.451172 C 31.017745 50.969022 32.630374 48.972356 33.792969 46.460938 C 34.993066 43.908344 35.59375 41.027732 35.59375 37.816406 C 35.59375 34.56391 34.993066 31.681343 33.792969 29.169922 C 32.592871 26.658501 30.961105 24.683167 28.898438 23.242188 C 26.83577 21.801208 24.473263 21.080078 21.810547 21.080078 z M 98.710938 21.634766 L 98.710938 53.996094 C 98.710937 55.601756 98.468008 56.939324 97.980469 58.009766 C 97.492929 59.121378 96.760235 59.945248 95.785156 60.480469 C 94.84758 61.05686 93.648166 61.345703 92.185547 61.345703 L 94.378906 66.224609 C 96.404071 66.224609 98.167847 65.770993 99.667969 64.865234 C 101.20559 63.959476 102.38587 62.703319 103.21094 61.097656 C 104.07351 59.491994 104.50586 57.638778 104.50586 55.539062 L 104.50586 21.634766 L 98.710938 21.634766 z M 76.603516 26.761719 C 78.366159 26.761719 79.940512 27.234711 81.328125 28.181641 C 82.715738 29.12857 83.804233 30.446761 84.591797 32.134766 C 85.379361 33.781599 85.7543 35.675523 85.716797 37.816406 C 85.7543 39.916119 85.379361 41.810042 84.591797 43.498047 C 83.804233 45.14488 82.715738 46.461119 81.328125 47.449219 C 79.940512 48.396148 78.366159 48.871094 76.603516 48.871094 C 74.840873 48.871094 73.247381 48.396148 71.822266 47.449219 C 70.434653 46.461119 69.346158 45.14488 68.558594 43.498047 C 67.77103 41.810042 67.396091 39.916119 67.433594 37.816406 C 67.396091 35.716693 67.77103 33.842146 68.558594 32.195312 C 69.346158 30.507308 70.434653 29.19107 71.822266 28.244141 C 73.247381 27.25604 74.840873 26.761719 76.603516 26.761719 z M 126.10742 26.761719 C 127.38253 26.761719 128.5628 27.069937 129.65039 27.6875 C 130.73798 28.305063 131.639 29.150261 132.35156 30.220703 C 133.06412 31.291145 133.47538 32.504644 133.58789 33.863281 L 133.58789 34.294922 L 117.07422 34.294922 C 117.25173 33.367004 117.50285 32.518648 117.83789 31.763672 C 118.55045 30.116838 119.60067 28.882011 120.98828 28.058594 C 122.37589 27.194006 124.08226 26.761719 126.10742 26.761719 z M 21.023438 26.947266 C 22.786081 26.947266 24.34325 27.420258 25.693359 28.367188 C 27.043469 29.314117 28.093689 30.610979 28.84375 32.257812 C 29.631314 33.863475 30.023436 35.716693 30.023438 37.816406 C 30.023438 39.916119 29.631314 41.788713 28.84375 43.435547 C 28.056186 45.08238 26.986828 46.379243 25.636719 47.326172 C 24.286609 48.273101 22.748577 48.746094 21.023438 48.746094 C 19.260794 48.746094 17.703625 48.273101 16.353516 47.326172 C 15.003406 46.379243 13.936001 45.08238 13.148438 43.435547 C 12.360874 41.788713 11.966797 39.916119 11.966797 37.816406 C 11.966797 35.716693 12.360874 33.842146 13.148438 32.195312 C 13.935999 30.548479 15.003406 29.272946 16.353516 28.367188 C 17.703625 27.420258 19.260794 26.947266 21.023438 26.947266 z "
     style="font-style:normal;font-weight:normal;font-size:58.94125366px;line-height:1.25;font-family:sans-serif;letter-spacing:0px;word-spacing:0px;fill:#394149;fill-opacity:1;stroke:none;stroke-width:3.68382835" />
  <path
     id="text831-3"
     transform="translate(0,-1)"
     d="M 457.73242 12.345703 L 457.73242 29.667969 C 457.23151 29.019105 456.63848 28.409568 455.93164 27.847656 C 454.84405 26.941898 453.60636 26.242097 452.21875 25.748047 C 450.86864 25.212826 449.46262 24.945313 448 24.945312 C 445.33728 24.945313 442.95564 25.685819 440.85547 27.167969 C 438.7553 28.608948 437.08721 30.605611 435.84961 33.158203 C 434.64951 35.669624 434.04883 38.552191 434.04883 41.804688 C 434.04883 45.057184 434.6667 47.959127 435.9043 50.511719 C 437.1419 53.02314 438.81194 55.019803 440.91211 56.501953 C 443.04978 57.942932 445.46775 58.664062 448.16797 58.664062 C 449.51808 58.664063 450.83037 58.415925 452.10547 57.921875 C 453.41808 57.427825 454.56203 56.768729 455.53711 55.945312 C 456.43335 55.216504 457.15936 54.436898 457.73242 53.611328 L 457.73242 58.044922 L 463.52539 58.044922 L 463.52539 12.345703 L 457.73242 12.345703 z M 338.30273 12.408203 C 336.57759 12.408203 335.0587 12.819161 333.74609 13.642578 C 332.43349 14.465995 331.4024 15.598083 330.65234 17.039062 C 329.90228 18.480042 329.52734 20.127781 329.52734 21.980469 L 329.52734 26.179688 L 324.80273 26.179688 L 324.80273 32.046875 L 329.52734 32.046875 L 329.52734 58.044922 L 330.99023 58.044922 L 332.45312 58.044922 L 335.37891 58.044922 L 335.37891 32.046875 L 342.35352 32.046875 L 342.35352 26.179688 L 335.37891 26.179688 L 335.37891 21.980469 C 335.37891 21.198223 335.50896 20.539127 335.77148 20.003906 C 336.03401 19.427515 336.42809 19.016556 336.95312 18.769531 C 337.51567 18.481335 338.19095 18.335938 338.97852 18.335938 C 339.50356 18.335938 340.04683 18.500711 340.60938 18.830078 C 341.20942 19.118274 341.75465 19.509856 342.24219 20.003906 L 344.21094 15.125 C 343.57339 14.301583 342.72977 13.642488 341.67969 13.148438 C 340.6296 12.654386 339.50283 12.408203 338.30273 12.408203 z M 360.41211 12.408203 C 358.68697 12.408203 357.16808 12.819161 355.85547 13.642578 C 354.54286 14.465995 353.51178 15.598083 352.76172 17.039062 C 352.01166 18.480042 351.63672 20.127781 351.63672 21.980469 L 351.63672 26.179688 L 346.91016 26.179688 L 346.91016 32.046875 L 351.63672 32.046875 L 351.63672 58.044922 L 353.09766 58.044922 L 354.56055 58.044922 L 357.48633 58.044922 L 357.48633 32.046875 L 364.46094 32.046875 L 364.46094 26.179688 L 357.48633 26.179688 L 357.48633 21.980469 C 357.48633 21.198223 357.61834 20.539127 357.88086 20.003906 C 358.14338 19.427515 358.5355 19.016556 359.06055 18.769531 C 359.62309 18.481335 360.29837 18.335938 361.08594 18.335938 C 361.61098 18.335938 362.1562 18.500711 362.71875 18.830078 C 363.3188 19.118274 363.86207 19.509856 364.34961 20.003906 L 366.31836 15.125 C 365.68081 14.301583 364.83719 13.642488 363.78711 13.148438 C 362.73702 12.654386 361.61221 12.408203 360.41211 12.408203 z M 382.6875 24.882812 C 380.51232 24.882813 378.48843 25.3151 376.61328 26.179688 C 374.77563 27.003104 373.18214 28.197227 371.83203 29.761719 C 370.51942 31.28504 369.48639 33.095601 368.73633 35.195312 C 367.98627 37.295026 367.61133 39.621236 367.61133 42.173828 C 367.61133 45.385154 368.26747 48.227015 369.58008 50.697266 C 370.93019 53.167516 372.76856 55.123474 375.09375 56.564453 C 377.45644 57.964262 380.15757 58.664063 383.19531 58.664062 C 384.58293 58.664062 385.98895 58.45663 387.41406 58.044922 C 388.87668 57.592043 390.24443 56.994981 391.51953 56.253906 C 392.83214 55.512831 393.93977 54.648256 394.83984 53.660156 L 391.91406 49.152344 C 390.45144 50.552152 389.08174 51.519465 387.80664 52.054688 C 386.56904 52.589908 385.22043 52.857422 383.75781 52.857422 C 381.69515 52.857422 379.87591 52.405758 378.30078 51.5 C 376.72565 50.594242 375.5071 49.316755 374.64453 47.669922 C 373.99248 46.393895 373.58883 44.953058 373.42969 43.347656 L 396.02148 43.347656 L 396.07617 40.630859 C 396.11367 38.366463 395.79615 36.286437 395.12109 34.392578 C 394.48354 32.457549 393.54619 30.790434 392.30859 29.390625 C 391.1085 27.990816 389.68334 26.899433 388.0332 26.117188 C 386.38307 25.293771 384.60016 24.882812 382.6875 24.882812 z M 484.79102 24.882812 C 482.61584 24.882813 480.59 25.3151 478.71484 26.179688 C 476.87719 27.003104 475.2837 28.197227 473.93359 29.761719 C 472.62099 31.28504 471.5899 33.095601 470.83984 35.195312 C 470.08978 37.295026 469.71484 39.621236 469.71484 42.173828 C 469.71484 45.385154 470.37099 48.227015 471.68359 50.697266 C 473.0337 53.167516 474.87012 55.123474 477.19531 56.564453 C 479.558 57.964262 482.2591 58.664063 485.29688 58.664062 C 486.68448 58.664062 488.09054 58.45663 489.51562 58.044922 C 490.97825 57.592043 492.34794 56.994981 493.62305 56.253906 C 494.93565 55.512831 496.04133 54.648256 496.94141 53.660156 L 494.01562 49.152344 C 492.55301 50.552152 491.18526 51.519465 489.91016 52.054688 C 488.67256 52.589908 487.32199 52.857422 485.85938 52.857422 C 483.79671 52.857422 481.97747 52.405758 480.40234 51.5 C 478.82722 50.594242 477.60866 49.316755 476.74609 47.669922 C 476.09404 46.393895 475.69039 44.953058 475.53125 43.347656 L 498.12305 43.347656 L 498.17969 40.630859 C 498.21719 38.366463 497.89771 36.286437 497.22266 34.392578 C 496.5851 32.457549 495.64776 30.790434 494.41016 29.390625 C 493.21006 27.990816 491.7849 26.899433 490.13477 26.117188 C 488.48463 25.293771 486.70367 24.882812 484.79102 24.882812 z M 306.125 24.945312 C 303.23727 24.945313 300.65097 25.685819 298.36328 27.167969 C 296.1131 28.608948 294.33214 30.605611 293.01953 33.158203 C 291.70692 35.669624 291.04883 38.552191 291.04883 41.804688 C 291.04883 45.057184 291.70692 47.959127 293.01953 50.511719 C 294.33214 53.02314 296.1131 55.019803 298.36328 56.501953 C 300.65097 57.942932 303.23727 58.664062 306.125 58.664062 C 308.97523 58.664063 311.52716 57.942932 313.77734 56.501953 C 316.06503 55.019803 317.86513 53.02314 319.17773 50.511719 C 320.49034 47.959127 321.14648 45.057182 321.14648 41.804688 C 321.14648 38.552191 320.49034 35.669624 319.17773 33.158203 C 317.86513 30.605611 316.06503 28.608948 313.77734 27.167969 C 311.52716 25.685819 308.97523 24.945314 306.125 24.945312 z M 417.84766 24.945312 C 416.27253 24.945313 414.7345 25.334942 413.23438 26.117188 C 411.73424 26.858263 410.4411 27.846906 409.35352 29.082031 C 408.8907 29.590114 408.50563 30.124918 408.17188 30.677734 L 408.17188 25.623047 L 402.37695 25.623047 L 402.37695 58.044922 L 403.83984 58.044922 L 405.30273 58.044922 L 408.17188 58.044922 L 408.17188 38.408203 C 408.17187 37.337761 408.35934 36.349118 408.73438 35.443359 C 409.14691 34.49643 409.69018 33.672561 410.36523 32.972656 C 411.07779 32.272752 411.90227 31.737725 412.83984 31.367188 C 413.77742 30.955479 414.81046 30.75 415.93555 30.75 C 417.32316 30.667658 418.4843 30.913843 419.42188 31.490234 C 420.35944 32.025455 421.05387 32.911359 421.50391 34.146484 C 421.95394 35.340439 422.17969 36.864109 422.17969 38.716797 L 422.17969 58.044922 L 427.97266 58.044922 L 427.97266 38.283203 C 427.97266 35.277732 427.59772 32.786747 426.84766 30.810547 C 426.0976 28.834347 424.97278 27.372711 423.47266 26.425781 C 421.97253 25.437681 420.09784 24.945314 417.84766 24.945312 z M 519.33008 24.945312 C 517.94247 24.945313 516.5919 25.315566 515.2793 26.056641 C 514.00419 26.797716 512.86024 27.805735 511.84766 29.082031 C 511.221 29.902271 510.72439 30.789243 510.33008 31.728516 L 510.33008 25.623047 L 504.47852 25.623047 L 504.47852 58.044922 L 510.33008 58.044922 L 510.33008 40.136719 C 510.33008 38.942764 510.53669 37.851381 510.94922 36.863281 C 511.36175 35.83401 511.90502 34.948106 512.58008 34.207031 C 513.29264 33.424785 514.09797 32.827724 514.99805 32.416016 C 515.93562 31.963136 516.91125 31.738281 517.92383 31.738281 C 518.44887 31.738281 518.97496 31.819692 519.5 31.984375 C 520.06255 32.107888 520.56754 32.272661 521.01758 32.478516 L 522.53711 25.5625 C 522.19958 25.397817 521.73091 25.252419 521.13086 25.128906 C 520.56831 25.005394 519.96763 24.945314 519.33008 24.945312 z M 448.95508 30.441406 C 450.71772 30.441406 452.27489 30.935728 453.625 31.923828 C 454.97511 32.911928 456.02533 34.268872 456.77539 35.998047 C 457.56295 37.686051 457.95703 39.622633 457.95703 41.804688 C 457.95703 43.986742 457.56295 45.940747 456.77539 47.669922 C 456.02533 49.357926 454.97511 50.697447 453.625 51.685547 C 452.27489 52.673647 450.71772 53.167969 448.95508 53.167969 C 447.19244 53.167969 445.63722 52.673647 444.28711 51.685547 C 442.937 50.697447 441.86764 49.357926 441.08008 47.669922 C 440.33002 45.940747 439.95508 43.986742 439.95508 41.804688 C 439.95508 39.622633 440.33002 37.686051 441.08008 35.998047 C 441.86764 34.268872 442.937 32.911928 444.28711 31.923828 C 445.63722 30.935728 447.19244 30.441406 448.95508 30.441406 z M 306.125 30.75 C 307.88764 30.75 309.46395 31.222993 310.85156 32.169922 C 312.23918 33.116851 313.32572 34.435042 314.11328 36.123047 C 314.90085 37.76988 315.27578 39.663804 315.23828 41.804688 C 315.27578 43.9044 314.90085 45.798324 314.11328 47.486328 C 313.32572 49.133162 312.23918 50.4494 310.85156 51.4375 C 309.46395 52.384429 307.88764 52.857422 306.125 52.857422 C 304.36236 52.857422 302.76887 52.384429 301.34375 51.4375 C 299.95614 50.4494 298.8696 49.133162 298.08203 47.486328 C 297.29447 45.798324 296.91953 43.904399 296.95703 41.804688 C 296.91953 39.704974 297.29447 37.830427 298.08203 36.183594 C 298.8696 34.495589 299.95614 33.179351 301.34375 32.232422 C 302.76887 31.244322 304.36236 30.75 306.125 30.75 z M 382.6875 30.75 C 383.9626 30.75 385.14483 31.058219 386.23242 31.675781 C 387.32001 32.293344 388.21908 33.136589 388.93164 34.207031 C 389.6442 35.277473 390.05741 36.492925 390.16992 37.851562 L 390.16992 38.283203 L 373.65625 38.283203 C 373.83376 37.355285 374.08293 36.506929 374.41797 35.751953 C 375.13053 34.10512 376.18075 32.870292 377.56836 32.046875 C 378.95597 31.182287 380.66234 30.75 382.6875 30.75 z M 484.79102 30.75 C 486.06612 30.75 487.2464 31.058219 488.33398 31.675781 C 489.42157 32.293344 490.3226 33.136589 491.03516 34.207031 C 491.74771 35.277473 492.15898 36.492925 492.27148 37.851562 L 492.27148 38.283203 L 475.75781 38.283203 C 475.93532 37.355285 476.18644 36.506929 476.52148 35.751953 C 477.23404 34.10512 478.28426 32.870292 479.67188 32.046875 C 481.05948 31.182287 482.76585 30.75 484.79102 30.75 z "
     style="font-style:normal;font-weight:normal;font-size:58.94125366px;line-height:1.25;font-family:sans-serif;letter-spacing:0px;word-spacing:0px;fill:#394149;fill-opacity:1;stroke:none;stroke-width:3.68382835" />
</svg>
