<?xml version="1.0" encoding="UTF-8" standalone="no"?>
<svg
   xmlns:dc="http://purl.org/dc/elements/1.1/"
   xmlns:cc="http://creativecommons.org/ns#"
   xmlns:rdf="http://www.w3.org/1999/02/22-rdf-syntax-ns#"
   xmlns:svg="http://www.w3.org/2000/svg"
   xmlns="http://www.w3.org/2000/svg"
   style="fill:none"
   version="1.1"
   viewBox="0 0 30 30"
   height="30"
   width="30"
   id="logo-8">
  <metadata
     id="metadata112">
    <rdf:RDF>
      <cc:Work
         rdf:about="">
        <dc:format>image/svg+xml</dc:format>
        <dc:type
           rdf:resource="http://purl.org/dc/dcmitype/StillImage" />
        <dc:title></dc:title>
      </cc:Work>
    </rdf:RDF>
  </metadata>
  <defs
     id="defs110" />
  <path
     style="fill:#50879f;fill-opacity:1"
     id="path81"
     class="ccompli2"
     d="m 22.419,13.371 c -0.379,0.3813 -0.6692,0.8415 -0.85,1.3477 -0.1808,0.5063 -0.2477,1.0462 -0.196,1.5813 l -0.018,-0.018 c 0.0532,0.6299 -0.0318,1.2637 -0.2489,1.8574 -0.2171,0.5936 -0.5611,1.1327 -1.008,1.5797 -0.447,0.4469 -0.9861,0.791 -1.5798,1.008 -0.5936,0.2171 -1.2275,0.3021 -1.8573,0.2489 l 0.018,0.018 c -0.7534,-0.0701 -1.5101,0.0938 -2.167,0.4695 -0.6568,0.3757 -1.1818,0.9448 -1.5033,1.6298 -0.3215,0.685 -0.424,1.4524 -0.2934,2.1978 0.1307,0.7453 0.488,1.4322 1.0233,1.967 0.5353,0.5348 1.2225,0.8915 1.9679,1.0214 0.7455,0.13 1.5128,0.0268 2.1975,-0.2953 0.6847,-0.3222 1.2533,-0.8476 1.6284,-1.5048 0.3751,-0.6572 0.5384,-1.414 0.4676,-2.1674 l 0.019,0.018 c -0.0532,-0.6298 0.0317,-1.2637 0.2488,-1.8574 0.2171,-0.5936 0.5612,-1.1327 1.0081,-1.5797 0.447,-0.4469 0.9861,-0.791 1.5797,-1.008 0.5937,-0.2171 1.2275,-0.3021 1.8574,-0.2489 l -0.019,-0.018 c 0.6154,0.0553 1.2349,-0.0456 1.801,-0.2934 0.566,-0.2478 1.0604,-0.6345 1.4372,-1.1242 0.3768,-0.4897 0.624,-1.0667 0.7184,-1.6773 0.0945,-0.6107 0.0333,-1.2353 -0.1779,-1.8161 -0.2112,-0.5807 -0.5656,-1.0987 -1.0303,-1.506 -0.4647,-0.4073 -1.0247,-0.6907 -1.6281,-0.8239 -0.6034,-0.1332 -1.2307,-0.112 -1.8237,0.0617 -0.593,0.1738 -1.1325,0.4944 -1.5686,0.9322 z" />
  <path
     style="fill:#50879f;fill-opacity:1"
     id="path83"
     class="ccompli1"
     d="m 15.042,18.636 -0.019,-0.018 c 0.5353,0.0539 1.0759,-0.0118 1.5828,-0.1924 0.5068,-0.1806 0.9672,-0.4715 1.3478,-0.8518 0.3805,-0.3803 0.6719,-0.8405 0.8528,-1.3472 0.181,-0.5067 0.2471,-1.0472 0.1936,-1.5826 l 0.019,0.018 c -0.0532,-0.6299 0.0318,-1.2637 0.2488,-1.8574 0.2171,-0.5936 0.5612,-1.1327 1.0081,-1.5797 0.447,-0.4469 0.9861,-0.791 1.5797,-1.008 C 22.4493,9.99976 23.0831,9.91483 23.713,9.968 L 23.694,9.95 c 0.7535,0.0708 1.5104,-0.09264 2.1676,-0.4679 0.6573,-0.37526 1.1827,-0.94413 1.5047,-1.629 C 27.6883,7.16824 27.7912,6.40071 27.661,5.6552 27.5308,4.90969 27.1738,4.22251 26.6386,3.68737 26.1035,3.15224 25.4163,2.7952 24.6708,2.66498 23.9253,2.53475 23.1578,2.63766 22.4729,2.95968 21.788,3.28169 21.2192,3.80714 20.8439,4.46435 20.4686,5.12155 20.3052,5.87852 20.376,6.632 L 20.358,6.613 c 0.0533,0.62989 -0.0315,1.26383 -0.2485,1.85755 -0.217,0.59372 -0.5611,1.13291 -1.008,1.57995 -0.447,0.4469 -0.9862,0.791 -1.5799,1.008 -0.5938,0.217 -1.2277,0.3018 -1.8576,0.2485 l 0.018,0.019 c -0.5353,-0.0539 -1.076,0.0118 -1.5828,0.1924 -0.5068,0.1805 -0.9672,0.4715 -1.3478,0.8518 -0.3806,0.3803 -0.6719,0.8405 -0.8529,1.3472 -0.1809,0.5067 -0.247,1.0472 -0.1935,1.5826 l -0.018,-0.018 c 0.053,0.6298 -0.0321,1.2636 -0.2492,1.8572 -0.2172,0.5935 -0.5612,1.1326 -1.0081,1.5795 C 9.98276,19.1656 9.44372,19.5096 8.85016,19.7268 8.2566,19.9439 7.62281,20.029 6.993,19.976 l 0.018,0.018 c -0.75348,-0.0708 -1.51045,0.0926 -2.16766,0.4679 -0.6572,0.3753 -1.18265,0.9441 -1.50466,1.629 -0.32202,0.6849 -0.42494,1.4524 -0.29471,2.1979 0.13023,0.7455 0.48727,1.4327 1.0224,1.9678 0.53514,0.5352 1.22232,0.8922 1.96783,1.0224 0.74551,0.1302 1.51304,0.0273 2.19791,-0.2947 0.68486,-0.322 1.25373,-0.8474 1.62899,-1.5046 0.3753,-0.6573 0.5387,-1.4142 0.4679,-2.1677 l 0.019,0.018 c -0.0532,-0.6299 0.0318,-1.2637 0.2489,-1.8574 0.217,-0.5936 0.5611,-1.1327 1.008,-1.5797 0.447,-0.4469 0.9861,-0.791 1.5797,-1.008 0.5937,-0.2171 1.2275,-0.3021 1.8574,-0.2489 z" />
  <path
     style="fill:#50879f;fill-opacity:1"
     id="path85"
     class="ccustom"
     d="M 8.34,16.629 C 8.71902,16.2478 9.0092,15.7876 9.18984,15.2813 9.37048,14.775 9.43712,14.235 9.385,13.7 l 0.01899,0.018 c -0.0532,-0.63 0.03176,-1.2641 0.24897,-1.8579 0.21721,-0.5938 0.56144,-1.133 1.00864,-1.58 C 11.1088,9.83312 11.6481,9.48913 12.242,9.27218 12.8359,9.05522 13.47,8.97052 14.1,9.024 L 14.081,9.006 C 14.8342,9.07657 15.5909,8.91308 16.2478,8.53784 16.9047,8.16261 17.4298,7.59388 17.7517,6.90923 18.0735,6.22457 18.1763,5.45732 18.0461,4.71209 17.9159,3.96686 17.5589,3.27994 17.024,2.745 16.4891,2.21006 15.8021,1.85314 15.0569,1.72292 14.3117,1.59269 13.5444,1.69551 12.8598,2.01733 12.1751,2.33915 11.6064,2.86432 11.2312,3.52122 10.8559,4.17812 10.6924,4.93478 10.763,5.688 L 10.745,5.67 C 10.7982,6.29985 10.7132,6.93372 10.4961,7.52736 10.279,8.121 9.93502,8.66011 9.48806,9.10707 9.04111,9.55403 8.50199,9.89806 7.90835,10.1151 7.31471,10.3322 6.68085,10.4172 6.051,10.364 l 0.018,0.018 C 5.45357,10.3268 4.83416,10.4279 4.26818,10.6758 3.7022,10.9237 3.20795,11.3105 2.83124,11.8003 2.45453,12.29 2.20755,12.867 2.11317,13.4776 c -0.09437,0.6107 -0.03308,1.2353 0.17819,1.8159 0.21127,0.5807 0.5657,1.0986 1.03043,1.5058 0.46473,0.4073 1.02473,0.6906 1.62811,0.8238 0.60337,0.1331 1.2306,0.1118 1.82357,-0.0619 0.59296,-0.1738 1.13246,-0.4944 1.56852,-0.9322 z" />
</svg>
